<?xml version="1.0" encoding="utf-8" ?><svg xmlns="http://www.w3.org/2000/svg" xmlns:xlink="http://www.w3.org/1999/xlink" width="1360" height="1696" viewBox="0 0 1360 1696"><path fill="#80B8F0" d="M693.671 87.6986C694.803 88.8491 692.636 114.905 692.521 119.11C690.834 180.705 711.484 264.397 739.909 318.644C773.318 382.402 840.89 458.84 896.064 506.246C926.072 532.029 958.953 554.107 989.883 578.699C1004.59 590.392 1019.35 602.224 1033 615.145C1076.41 656.242 1125.94 717.568 1152.82 771.213C1171.72 808.927 1186.73 849.176 1194.97 890.575C1211.56 973.979 1204.85 1115.61 1177.77 1196.23C1169.84 1219.85 1160.3 1245.08 1147.84 1266.7C1136.85 1285.78 1122.54 1302.7 1108.63 1319.68C1083.38 1350.52 1056.71 1383.34 1024.93 1407.68C1000.77 1426.18 971.864 1441.49 944.637 1454.98C903.94 1475.13 858.671 1492.47 814.112 1502C773.152 1510.75 731.725 1512.11 690.012 1512.26C663.787 1512.36 637.222 1513.19 611.044 1511.7C554.674 1508.49 499.554 1495.73 446.226 1477.69C382.014 1455.28 294.573 1408.43 248.976 1357.11C160.306 1257.31 92.4875 1077.28 100.428 943.868C106.443 842.8 141.72 731.55 195.03 645.472C209.43 622.222 226.316 600.602 243.083 579.035C263.508 552.763 283.855 527.301 308.841 505.14C313.986 521.941 316.326 539.956 319.565 557.203C327.338 598.593 336.263 631.492 366.344 662.516C373.123 669.508 380.196 676.288 388.237 681.827C403.053 692.033 435.967 701.859 454.098 697.811C463.805 695.644 467.195 679.477 467.824 670.992C469.256 651.684 463.347 631.002 461.49 611.756C456.655 561.63 456.223 508.869 465.7 459.251C483.86 364.168 555.76 245.732 619.241 173.01C643.731 144.955 674.385 119.731 693.671 87.6986Z"/></svg>