<?xml version="1.0" encoding="utf-8" ?><svg xmlns="http://www.w3.org/2000/svg" xmlns:xlink="http://www.w3.org/1999/xlink" width="606" height="582" viewBox="0 0 606 582"><defs><linearGradient id="gradient_0" gradientUnits="userSpaceOnUse" x1="300.60049" y1="477.16168" x2="301.02231" y2="50.624889"><stop offset="0" stop-color="#387FE9"/><stop offset="1" stop-color="#66DEEC"/></linearGradient></defs><path fill="url(#gradient_0)" d="M398.624 52.2846C400.186 45.4122 406.012 38.697 411.86 35.0186C419.222 30.3717 428.14 28.8706 436.618 30.8514C444.716 32.7011 451.749 38.039 456.093 45.0657C460.801 52.6817 461.075 60.9086 460.892 69.615L460.987 78.1377C469.012 77.9476 477.078 78.1012 485.106 78.103C500.223 78.1064 513.599 76.5911 526.148 86.9063C534.6 93.8531 539.718 103.459 540.738 114.328C541.73 124.906 541.067 136.535 541.05 147.203L540.967 207.584L540.904 286.362L540.92 311.125C540.931 315.755 541.128 320.475 540.887 325.092C540.771 327.315 540.53 329.528 538.994 331.271C537.543 332.916 535.382 333.82 533.206 333.873C531 333.927 528.711 333.106 527.173 331.496C525.67 329.924 525.217 327.889 525.051 325.778C524.67 320.91 525.038 315.761 525.037 310.861L525.057 279.036L524.988 189.753C510.034 190.278 494.892 189.787 479.922 189.78L394.31 189.806L76.926 189.935C77.15 197.14 76.977 204.398 76.9761 211.607L76.9737 251.916L76.9762 373.594L76.9476 417.615C76.9426 425.501 76.2869 434.053 77.3668 441.84C78.0492 446.761 80.5212 451.376 83.9834 454.908C87.6154 458.573 92.3484 460.946 97.4577 461.664C105.235 462.731 113.716 462.113 121.572 462.105L164.378 462.077L321.87 462.07C325.149 462.1 328.416 462.048 330.822 464.649C332.322 466.302 333.074 468.501 332.9 470.726C332.731 472.782 331.748 474.686 330.17 476.014C328.277 477.603 325.716 477.784 323.345 477.901C318.487 478.141 313.557 477.955 308.688 477.941L284.619 477.963L199.146 477.963L132.399 477.901L111.391 477.908C106.93 477.91 102.396 478.046 97.9472 477.694C86.9307 476.821 77.3511 471.911 70.2294 463.424C65.3595 457.621 62.2848 450.711 61.4839 443.176C60.7603 436.369 61.0744 429.422 61.0853 422.584L61.1131 390.148L61.0743 283.523L61.0177 169.737L61.0043 135.053C61.0028 127.847 60.6927 120.499 61.3633 113.32C62.324 103.035 67.8337 93.508 75.7714 87.0073C80.3443 83.2314 85.7251 80.5588 91.4969 79.1965C99.9746 77.2494 113.055 78.2004 122.157 78.1489C128.379 78.1138 134.872 77.6038 141.051 78.2515C141.023 70.5506 140.192 61.8247 142.042 54.3255C144.25 45.9004 149.275 38.7942 156.878 34.3822C164.192 30.1382 173.546 28.8945 181.718 31.1428C189.41 33.2589 196.778 38.9199 200.645 45.9261C202.464 49.2215 204.666 53.9928 204.486 57.86C205.695 63.8161 205.012 71.9724 205.031 78.2046C216.187 77.6218 227.608 78.1315 238.791 78.1311C248.597 78.1308 259.407 77.5694 269.066 78.2416C268.738 68.4771 267.985 57.5749 272.017 48.4831C275.735 40.7319 282.227 34.5992 290.408 31.7806C298.302 29.0607 307.803 29.538 315.295 33.2497C322.85 36.9928 328.875 44.1643 331.474 52.1652C333.911 59.6672 332.814 68.0171 333.037 75.7955C333.02 76.6041 332.982 77.2462 333.317 78.0064C337.27 78.674 345.417 78.1145 349.769 78.1016L378.772 78.1124C384.841 78.1013 391.011 77.8381 397.062 78.235C397.118 70.7242 395.85 59.0949 398.624 52.2846ZM444.726 59.3549C444.69 59.2608 444.653 59.167 444.619 59.0726C442.659 53.7478 440.914 49.8378 435.429 47.2972C431.624 45.5345 427.435 45.4684 423.524 46.9215C419.493 48.3855 416.239 51.4377 414.519 55.3664C413.272 58.182 413.037 60.9026 412.946 63.9433C413.242 78.5803 412.734 93.2456 412.983 107.886C413.074 113.239 414.076 117.854 418.117 121.682C421.319 124.716 425.658 126.122 430.032 125.917C434.182 125.722 438.097 123.671 440.873 120.628C442.509 118.834 443.849 116.686 444.399 114.306C445.865 107.966 445.098 99.0905 445.091 92.5026C445.079 81.4655 445.281 70.3798 444.726 59.3549ZM332.904 93.9681C333.221 107.964 334.594 121.109 324.061 132.103C318.129 138.294 310.162 141.527 301.641 141.7C293.036 141.875 285.01 138.928 278.802 132.901C271.473 125.785 269.068 117.544 268.978 107.555L268.965 93.7361C256.087 93.9406 243.184 93.782 230.303 93.7875C221.825 93.791 213.291 94.0505 204.821 93.8517C205.12 97.2329 205.015 100.679 205.021 104.072C205.037 114.131 204.293 122.415 197.551 130.47C192.229 136.832 184.614 140.838 176.357 141.62C167.413 142.404 159.156 140.115 152.279 134.233C145.545 128.474 141.828 120.927 141.209 112.129C140.782 106.06 141.077 99.8737 141.015 93.7875C127.931 94.4956 114.704 93.3659 101.592 93.9555C94.5883 94.2482 88.1828 96.4138 83.3553 101.687C80.5466 104.771 78.6314 108.563 77.8156 112.653C76.2337 120.196 77.0122 129.893 77.018 137.707L77.0503 174.265C83.9212 173.627 91.1383 174.133 98.0586 174.142L137.968 174.141L270.627 174.13L442.432 174.152L497.698 174.122C506.789 174.112 516.112 173.642 525.176 174.123L525.152 173.795C524.831 168.945 525.033 163.973 525.034 159.11L525.078 132.439C525.088 125.457 525.784 117.473 523.748 110.732C522.46 106.465 519.757 102.612 516.42 99.6906C508.652 92.8888 498.903 93.8217 489.268 93.8822L460.944 94.0374C461.206 108.025 462.492 121.291 451.972 132.224C445.9 138.534 437.751 141.637 429.067 141.728C420.623 141.881 412.478 138.599 406.5 132.633C398.051 124.336 397.058 115.123 397.027 103.861C397.018 100.531 396.868 97.1331 397.03 93.8096C386.576 94.1294 376.045 93.821 365.582 93.8238C354.703 93.8266 343.777 94.1344 332.904 93.9681ZM188.443 57.5846C186.534 53.0358 184.02 49.1954 179.265 47.1814C175.104 45.4189 170.539 45.6586 166.425 47.4374C162.628 49.0788 159.745 52.0056 158.259 55.8921C156.347 60.892 157.149 66.4878 156.849 71.7161C157.267 74.8357 156.965 78.3497 156.957 81.5118L156.91 99.6051C156.902 103.38 156.738 107.266 157.089 111.024C157.514 115.565 159.356 119.412 162.9 122.323C166.274 125.095 170.408 126.298 174.75 125.821C179.072 125.346 182.785 123.174 185.446 119.77C186.988 117.798 188.029 115.656 188.464 113.178C189.687 106.196 189.012 96.0299 189.014 88.7085C189.016 78.6742 189.706 67.4784 188.443 57.5846ZM316.598 58.8322C315.146 54.043 312.636 50.0774 308.117 47.6681C304.353 45.6611 300.191 45.3732 296.147 46.6726C292.174 47.9493 288.916 50.638 286.999 54.3526C285.128 57.9767 284.972 61.7928 284.889 65.7804C285.276 80.0606 284.645 94.3737 284.914 108.656C285.01 113.753 286.45 118.134 290.216 121.684C293.418 124.701 297.433 126.061 301.808 125.922C306.043 125.787 309.921 124.072 312.743 120.902C314.773 118.62 316.023 115.846 316.589 112.857C317.712 106.917 317.027 98.8761 317.017 92.7203C316.998 81.4637 317.346 70.0629 316.598 58.8322Z"/><path fill="#66DDEC" d="M272.017 48.4831C275.735 40.7319 282.227 34.5992 290.408 31.7806C298.302 29.0607 307.803 29.538 315.295 33.2497C322.85 36.9928 328.875 44.1643 331.474 52.1652C333.911 59.6672 332.814 68.0171 333.037 75.7955C332.569 76.1343 332.832 76.0363 332.245 76.0812C331.533 74.1143 332.43 71.4801 331.558 69.7549C331.074 70.64 331.603 72.0793 331.106 72.7105L330.216 71.9019C329.437 72.2375 328.82 73.6704 328.353 74.4311C326.24 75.1961 325.62 73.2713 323.708 73.1087C322.648 73.8104 322.635 74.8823 321.941 75.9243L321.28 75.5613L320.366 76.054C318.342 74.2004 318.298 64.0571 317.841 60.9142C317.685 59.8447 317.461 59.4686 316.598 58.8322C315.146 54.043 312.636 50.0774 308.117 47.6681C304.353 45.6611 300.191 45.3732 296.147 46.6726C292.174 47.9493 288.916 50.638 286.999 54.3526C285.128 57.9767 284.972 61.7928 284.889 65.7804C284.135 66.4575 284.521 71.3325 284.387 72.5752C284.276 73.6099 284.233 74.619 284.206 75.6589C284.109 75.224 283.95 74.6896 283.732 74.3027C283.378 73.6731 282.95 73.4878 282.305 73.2532C281.607 74.2744 281.498 76.4425 281.174 77.696C279.432 78.106 277.584 74.5739 274.741 74.2589C274.164 74.8347 273.693 75.2435 272.95 75.6161C272.301 75.5119 272.33 75.4969 271.917 74.9793C271.801 73.1426 270.985 71.6501 270.687 69.8454C270.132 66.4738 270.451 62.4583 270.602 59.0415C270.753 55.6281 272.296 52.1605 272.047 48.7766C272.04 48.6786 272.027 48.581 272.017 48.4831Z"/><path fill="#66DDEC" d="M398.624 52.2846C400.186 45.4122 406.012 38.697 411.86 35.0186C419.222 30.3717 428.14 28.8706 436.618 30.8514C444.716 32.7011 451.749 38.039 456.093 45.0657C460.801 52.6817 461.075 60.9086 460.892 69.615C459.726 70.9017 461.351 74.2813 460.308 75.706C460.067 73.6818 460.159 71.5552 459.736 69.5739C459.201 70.5364 459.706 72.1598 459.064 72.8431L458.256 72.1811C457.02 72.3599 456.668 74.0879 455.329 74.5717C454.524 74.4882 454.249 74.3167 453.661 73.821C453.028 73.2882 452.598 72.9504 451.729 73.1561C450.649 73.4117 449.185 74.9167 448.716 75.8801C448.653 76.0099 448.599 76.1441 448.541 76.2762L448.18 76.1983C448.185 75.3834 448.238 74.5998 447.978 73.8157L447.552 73.6745L447.203 74.0937C446.792 70.3975 447.344 61.9994 444.726 59.3549C444.69 59.2608 444.653 59.167 444.619 59.0726C442.659 53.7478 440.914 49.8378 435.429 47.2972C431.624 45.5345 427.435 45.4684 423.524 46.9215C419.493 48.3855 416.239 51.4377 414.519 55.3664C413.272 58.182 413.037 60.9026 412.946 63.9433C412.92 63.9487 412.89 63.9464 412.867 63.9597C411.488 64.7314 413.096 75.2864 412.049 77.483C412.042 76.113 412.165 74.3529 411.592 73.096L410.97 73.0943C408.952 74.307 410.313 76.3729 409.122 77.9239L408.634 77.4464C408.391 77.4172 407.945 77.3679 407.717 77.321C406.609 77.0931 405.935 75.4765 405.324 74.5574C403.236 73.6073 402.461 75.4034 400.623 75.2063C399.844 74.5122 400.097 73.6722 399.558 72.8699C399.306 72.4951 399.031 72.2675 398.917 71.8034C398.581 70.4391 398.782 68.4511 398.763 67.0349C398.697 62.124 398.811 57.1907 398.624 52.2846Z"/><path fill="#66DDEC" d="M142.042 54.3255C144.25 45.9004 149.275 38.7942 156.878 34.3822C164.192 30.1382 173.546 28.8945 181.718 31.1428C189.41 33.2589 196.778 38.9199 200.645 45.9261C202.464 49.2215 204.666 53.9928 204.486 57.86C203.888 63.6271 204.573 69.6272 204.249 75.4406C203.84 74.1047 204.042 72.2973 203.926 70.8785L203.594 70.715C203.387 71.3683 203.194 71.9775 202.861 72.5814L202.253 72.0764L201.766 72.1586L201.47 73.1781L200.914 72.9477L200.492 73.2142L200.507 74.4463L199.771 74.8653C198.525 74.9277 197.517 73.6768 196.442 73.172C195.852 72.895 195.281 72.8877 194.688 73.1473C194.553 73.8926 194.523 74.2553 193.961 74.8095C193.157 75.0623 193.084 75.1628 192.312 74.8611C190.001 71.9395 190.818 66.4025 190.366 62.8511C190.138 61.0625 189.905 58.7324 188.443 57.5846C186.534 53.0358 184.02 49.1954 179.265 47.1814C175.104 45.4189 170.539 45.6586 166.425 47.4374C162.628 49.0788 159.745 52.0056 158.259 55.8921C156.347 60.892 157.149 66.4878 156.849 71.7161C155.512 72.8159 157.154 75.699 156.077 77.1288C156.107 75.396 156.108 73.8903 155.639 72.2045L155.303 72.1552C155.103 72.6374 155.019 72.8909 154.637 73.2596C154.353 72.8397 154.348 72.7139 153.869 72.4999C153.299 73.6181 153.598 75.8191 153.437 77.1309L153.06 77.3529C150.684 76.7014 149.659 74.521 147.771 73.1507L147.413 73.3643C147.322 74.0009 147.316 74.1512 146.912 74.6819C146.783 74.6597 146.32 74.5733 146.204 74.5816C145.52 74.6306 145.484 76.1557 145.043 76.7741C143.67 75.4679 145.371 72.7628 143.921 71.0979C143.633 70.7676 143.115 70.3828 142.896 70.0088C142.262 68.9218 143.078 59.5199 142.425 57.043C142.187 56.1424 142.122 55.2513 142.042 54.3255Z"/><defs><linearGradient id="gradient_1" gradientUnits="userSpaceOnUse" x1="436.90036" y1="508.91745" x2="436.88754" y2="302.68695"><stop offset="0" stop-color="#3578E9"/><stop offset="1" stop-color="#4BA6EB"/></linearGradient></defs><path fill="url(#gradient_1)" d="M430.381 302.233C487.643 298.58 537.03 342.022 540.709 399.279C544.388 456.536 500.966 505.941 443.708 509.646C386.412 513.353 336.966 469.9 333.285 412.606C329.604 355.312 373.082 305.888 430.381 302.233ZM441.333 493.813C489.882 491.417 527.284 450.1 524.847 401.556C522.41 353.012 481.058 315.647 432.514 318.125C384.028 320.6 346.716 361.889 349.149 410.374C351.583 458.86 392.842 496.205 441.333 493.813Z"/><path fill="#49A1EA" d="M487.349 370.237C489.774 370.115 492.003 370.552 493.888 372.177C495.637 373.686 496.599 375.519 496.673 377.847C496.761 380.641 495.536 382.619 493.698 384.584C488.607 390.03 483.051 395.165 477.757 400.422L451.616 426.604L435.597 442.682C432.471 445.831 429.411 449.275 425.948 452.044C424.502 453.199 423.076 453.83 421.202 453.856C419.919 453.875 418.557 453.662 417.445 452.992C413.42 450.567 409.593 445.813 406.264 442.477L387.743 423.903C385.707 421.938 383.471 419.992 381.666 417.813C380.06 415.873 378.869 413.684 379.179 411.09C379.42 409.067 380.522 407.244 382.124 406.004C384.004 404.548 386.237 403.982 388.585 404.285C390.162 404.488 391.327 405.425 392.517 406.406C397.664 410.65 402.53 416.277 407.275 421.026C411.481 425.236 417.45 430.387 420.961 435.006C423.967 431.405 427.644 428.142 430.966 424.815L449.828 405.953L471.603 384.096C475.419 380.284 479.17 376.271 483.227 372.715C484.533 371.57 485.728 370.865 487.349 370.237Z"/><path fill="#49A1EA" d="M357.726 230.05C364.329 230.011 371.009 229.434 376.14 234.498C379.73 238.04 380.901 242.71 381.011 247.612C381.101 251.625 380.943 255.652 380.98 259.668C381.049 267.218 382.16 275.346 376.349 281.216C374.646 282.937 372.478 284.339 370.162 285.048C364.416 286.807 347.769 285.944 340.949 285.939C334.248 286.042 327.381 286.484 322.104 281.615C318.148 277.965 317.131 273.234 316.979 268.073C316.809 262.295 316.345 246.416 317.725 241.451C318.411 238.964 319.724 236.696 321.537 234.862C323.144 233.229 325.348 231.703 327.533 230.981C332.906 229.204 351.254 230.048 357.726 230.05ZM332.996 270.097C341.215 270.004 349.435 270.114 357.655 270.078C359.834 270.069 362.965 270.489 365.033 270.043C364.964 262.003 364.793 253.932 364.942 245.895L332.896 245.916C333.036 253.976 332.873 262.037 332.996 270.097Z"/><path fill="#49A1EA" d="M141.214 230.039C147.693 229.886 154.198 229.984 160.679 229.97C165.815 229.959 171.498 229.466 176.531 230.481C178.787 230.919 180.906 231.885 182.717 233.3C186.184 235.977 188.268 239.886 188.813 244.202C189.36 248.528 189.378 269.369 188.511 273.438C187.996 275.854 186.925 278.117 185.382 280.046C182.313 283.87 178.422 285.319 173.684 285.802C167.058 286.075 160.385 285.945 153.752 285.953C148.56 285.959 142.833 286.441 137.739 285.429C135.116 284.908 132.834 283.884 130.782 282.146C127.146 279.068 125.528 275.383 125.196 270.668C124.953 267.204 125.156 263.687 125.136 260.215C125.104 254.496 124.326 247.708 125.612 242.156C126.194 239.632 127.391 237.291 129.096 235.342C132.401 231.559 136.333 230.367 141.214 230.039ZM141.041 270.146C151.577 270.014 162.228 269.799 172.756 270.098C173.383 269.326 173.03 248.437 173.014 245.93L140.908 245.972C141.069 254.028 140.939 262.088 141.041 270.146Z"/><path fill="#49A1EA" d="M236.339 374.115C242.75 373.872 249.197 374.034 255.613 374.013C261.002 373.995 267.066 373.41 272.36 374.455C274.848 374.946 277.241 375.984 279.212 377.592C282.725 380.458 284.424 384.605 284.848 389.017C285.28 393.503 285.336 413.691 284.435 417.673C283.859 420.195 282.687 422.542 281.019 424.519C278.219 427.82 274.597 429.403 270.378 429.735C263.914 430.14 257.341 429.935 250.862 429.941C245.264 429.946 238.961 430.518 233.487 429.395C231.115 428.908 228.889 427.758 226.998 426.257C223.362 423.373 221.572 419.489 221.109 414.939C220.66 410.523 220.654 390.061 221.604 386.086C222.168 383.75 223.267 381.577 224.815 379.739C227.853 376.098 231.717 374.516 236.339 374.115ZM236.982 389.872L237.026 414.054L264.385 414.006L269.055 414.013C268.977 405.92 268.945 397.827 268.958 389.733C260.105 390.101 251.176 389.382 242.336 389.811C240.553 389.844 238.766 389.9 236.982 389.872Z"/><path fill="#49A1EA" d="M236.564 230.017C242.913 229.778 249.336 229.961 255.692 229.955C261.053 229.95 266.956 229.47 272.226 230.428C274.442 230.831 276.417 231.639 278.262 232.943C281.728 235.391 284.043 239.365 284.658 243.537C285.291 247.826 284.926 252.367 284.94 256.693C284.957 262.024 285.566 268.138 284.473 273.371C283.996 275.709 282.993 277.907 281.54 279.799C278.591 283.643 274.823 285.189 270.158 285.769C263.55 286.095 256.865 285.921 250.246 285.933C244.931 285.942 238.854 286.523 233.641 285.454C231.293 284.958 229.09 283.926 227.205 282.441C223.688 279.632 221.73 275.95 221.217 271.49C220.717 267.143 220.643 246.538 221.511 242.44C222.014 240.045 223.079 237.803 224.619 235.9C227.774 231.98 231.706 230.532 236.564 230.017ZM237.005 270.152L256.397 270.073C260.582 270.054 264.869 269.821 269.039 270.234C269.008 262.12 268.703 253.911 268.972 245.808C258.315 246.008 247.629 245.926 236.969 245.904L237.005 270.152Z"/><path fill="#49A1EA" d="M428.883 230.037C435.289 229.861 441.74 230.006 448.15 229.999C453.59 229.992 459.663 229.415 464.988 230.536C467.158 231.013 469.188 231.988 470.916 233.385C474.545 236.269 476.453 240.34 476.9 244.895C477.313 249.107 477.285 270.095 476.473 273.742C475.925 276.237 474.774 278.56 473.121 280.508C470.073 284.07 466.338 285.329 461.832 285.75C455.315 285.986 448.746 285.838 442.221 285.857C436.811 285.872 430.644 286.476 425.354 285.327C422.867 284.787 420.752 283.648 418.806 282.037C415.266 279.104 413.553 275.544 413.153 270.989C412.748 266.367 412.67 246.358 413.578 242.309C414.136 239.786 415.303 237.439 416.977 235.471C420.126 231.78 424.158 230.386 428.883 230.037ZM429.049 270.118C439.608 269.853 450.362 269.763 460.92 270.015C461.354 267.556 461.055 264.685 461.046 262.18C461.028 256.762 460.971 251.338 461.016 245.921L428.978 245.936L429.049 270.118Z"/><path fill="#49A1EA" d="M234.945 302.206C241.95 301.843 249.04 302.02 256.057 302.005C261.354 301.994 267.12 301.492 272.335 302.412C274.671 302.823 276.732 303.719 278.625 305.14C282.022 307.69 284.131 311.564 284.704 315.746C285.283 319.973 285.371 341.173 284.581 345.168C284.103 347.633 283.056 349.952 281.523 351.94C278.842 355.432 275.228 357.127 270.972 357.688C263.564 358.015 256.138 357.921 248.724 357.925C243.778 357.928 238.382 358.364 233.529 357.43C231.489 357.038 229.583 356.109 227.887 354.924C224.421 352.548 222.08 348.857 221.408 344.71C220.69 340.416 220.623 319.154 221.44 314.968C221.89 312.602 222.871 310.369 224.308 308.437C226.937 304.887 230.609 302.843 234.945 302.206ZM237.028 342.097L257.563 342.049C261.394 342.048 265.332 341.865 269.15 342.121C268.841 334.029 269.093 325.886 269.025 317.788C262.797 317.957 256.545 317.855 250.314 317.861C245.879 317.865 241.4 318.031 236.971 317.888L237.028 342.097Z"/><path fill="#49A1EA" d="M143.875 374.147L163.114 374.06C167.639 374.041 172.802 373.541 177.224 374.588C179.518 375.131 181.984 376.607 183.718 378.198C187.452 381.626 188.793 386.011 188.988 390.924C189.152 395.085 188.998 399.292 189.011 403.459C189.035 410.923 190.106 418.986 184.544 424.89C180.516 429.165 176.12 429.727 170.541 429.897L151.138 429.921C146.709 429.924 141.825 430.34 137.486 429.385C134.869 428.809 132.44 427.579 130.426 425.811C126.718 422.514 125.31 418.411 125.087 413.577C124.838 408.178 124.554 390.291 125.688 385.816C126.332 383.244 127.629 380.882 129.453 378.959C133.578 374.619 138.299 374.212 143.875 374.147ZM140.979 389.928C141.063 397.963 140.962 406 141.077 414.034C143.202 414.014 145.342 413.943 147.467 413.994C155.52 413.981 165.371 413.44 173.203 414.094C172.577 406.082 173.098 397.773 173.026 389.723C171.325 389.877 169.673 389.869 167.967 389.824L140.979 389.928Z"/><path fill="#49A1EA" d="M138.741 302.234C145.676 301.794 152.764 302.047 159.719 302.04C165.095 302.034 171.079 301.463 176.355 302.456C178.74 302.923 180.978 303.955 182.881 305.466C186.553 308.372 188.371 312.475 188.883 317.052C189.292 320.706 188.999 324.552 189 328.229C189.001 333.784 189.696 340.294 188.445 345.716C187.895 348.143 186.785 350.407 185.203 352.327C182.563 355.547 179.05 357.192 174.993 357.626C169.514 358.262 163.604 357.826 158.078 357.835C151.756 357.846 144.78 358.517 138.55 357.543C136.18 357.173 133.84 356.322 131.862 354.948C128.358 352.514 126.176 348.965 125.479 344.763C124.769 340.479 124.689 319.124 125.461 314.9C125.866 312.568 126.794 310.358 128.176 308.437C130.725 304.92 134.505 302.89 138.741 302.234ZM141.052 342.074L169.032 342.029L173.192 342.04C172.851 333.967 173.129 325.846 173.034 317.764C164.034 318.282 154.943 317.579 145.93 317.911C144.249 317.938 142.569 317.975 140.888 317.925C141.169 325.962 140.936 334.03 141.052 342.074Z"/><path fill="#49A1EA" d="M330.635 302.214C330.717 302.206 330.799 302.196 330.881 302.189C337.424 301.642 344.276 302.016 350.849 302.01C355.805 302.006 361.431 301.5 366.305 302.254C367.782 302.482 369.124 303.151 370.254 304.13C371.835 305.475 372.796 307.408 372.915 309.48C373.038 311.728 372.226 313.927 370.671 315.556C369.694 316.564 368.546 317.182 367.177 317.47C362.944 318.36 358.15 317.974 353.822 317.971L332.876 317.964C333.211 324.996 332.922 332.176 332.964 339.225C332.943 339.82 332.834 340.598 332.942 341.176C333.097 342.004 336.587 343.212 337.491 343.669C338.993 344.428 340.14 345.619 340.628 347.252C341.249 349.328 341.049 352.03 339.971 353.926C338.848 355.901 336.665 357.251 334.472 357.716C330.998 358.451 326.703 356.868 323.88 354.897C320.416 352.479 318.12 348.967 317.412 344.782C316.654 340.299 316.603 319.214 317.46 314.838C317.883 312.575 318.801 310.434 320.149 308.568C322.665 305.074 326.413 302.892 330.635 302.214Z"/></svg>